<svg id="Layer_1" data-name="Layer 1" xmlns="http://www.w3.org/2000/svg" viewBox="0 0 3299.64 182.1"><defs><style>.cls-1{fill:#ef4314;}.cls-2{fill:#2a3a9b;}.cls-3{fill:#fff;}</style></defs><title>I_Will_Die</title><polygon class="cls-1" points="330.39 173.1 268.67 104.05 161.47 104.05 161.47 78.25 280.21 78.25 322.84 125.95 373.91 9 435.14 78.85 3290.64 78.85 3290.64 104.64 423.45 104.64 381.29 56.55 330.39 173.1"/><rect class="cls-1" x="377.03" y="143.33" width="2913.61" height="25.79"/><rect class="cls-1" x="434.79" y="14.37" width="2855.85" height="25.79"/><rect class="cls-1" x="161.47" y="143.33" width="108.7" height="25.79"/><rect class="cls-1" x="161.47" y="14.37" width="165.99" height="25.79"/><rect class="cls-2" x="9" y="14.37" width="154.74" height="154.74"/><polygon class="cls-3" points="86.37 55.3 95.72 83.13 124.7 83.14 101.5 100.91 110.06 128.2 86.37 111.9 62.68 128.2 71.24 100.91 48.05 83.14 77.02 83.13 86.37 55.3"/></svg>