<svg id="Layer_1" data-name="Layer 1" xmlns="http://www.w3.org/2000/svg" viewBox="0 0 966.1 367.08"><defs><style>.cls-1{fill:#ef4314;}.cls-2{fill:#2a3a9b;}.cls-3{fill:#fff;}</style></defs><title>I_Will_Die</title><polygon class="cls-1" points="330.39 173.1 268.67 104.05 161.47 104.05 161.47 78.25 280.21 78.25 322.84 125.95 373.91 9 435.14 78.85 957.1 78.85 957.1 104.64 423.45 104.64 381.29 56.55 330.39 173.1"/><rect class="cls-1" x="377.03" y="143.33" width="580.06" height="25.79"/><rect class="cls-1" x="434.79" y="14.37" width="522.3" height="25.79"/><rect class="cls-1" x="161.47" y="143.33" width="108.7" height="25.79"/><rect class="cls-1" x="161.47" y="14.37" width="165.99" height="25.79"/><path class="cls-2" d="M34,358.08H9V205.71H34Z"/><path class="cls-2" d="M249.54,315l18.51-109.27h26.11L265.87,358.08H235.39L216.25,257.52,197.31,358.08H166.83L138.54,205.71h26.11L183.16,315l20.68-109.27h25Z"/><path class="cls-2" d="M351.89,358.08h-25V205.71h25Z"/><path class="cls-2" d="M418.29,333.05h52.24v25H393.25V205.71h25Z"/><path class="cls-2" d="M529.32,333.05h52.24v25H504.28V205.71h25Z"/><path class="cls-2" d="M774.22,313.68a44.45,44.45,0,0,1-44.4,44.4H687.15V205.71h42.66a44.26,44.26,0,0,1,44.4,44.19Zm-62-82.93v102.3h17.63a19.42,19.42,0,0,0,19.38-19.37V250.12a19.42,19.42,0,0,0-19.38-19.38Z"/><path class="cls-2" d="M838.46,358.08h-25V205.71h25Z"/><path class="cls-2" d="M957.1,230.75H904.86v37.44h47.89V293H904.86v40.05H957.1v25H879.83V205.71H957.1Z"/><rect class="cls-2" x="9" y="14.37" width="154.74" height="154.74"/><polygon class="cls-3" points="86.37 55.3 95.72 83.13 124.7 83.14 101.5 100.91 110.06 128.2 86.37 111.9 62.68 128.2 71.24 100.91 48.05 83.14 77.02 83.13 86.37 55.3"/></svg>